#!OML:ASF H:\IndianDance\Patient Classification 1\Patient 1\Session 1\dancer.ASF
:FULLY-SPECIFIED
:DEGREES
3349
root 3.64986 15.6691 13.301 -170.45 23.6151 -178.926
lowerback 5.04592 2.76695 -3.73053
upperback 1.37288 3.55494 -1.58789
thorax -1.53431 1.81856 0.227071
lowerneck -13.9996 -7.20733 -4.2904
upperneck 33.6595 -9.73173 7.86666
head 14.6012 -2.84166 2.55951
rclavicle -1.64991e-014 3.73715e-014
rhumerus -32.5114 -7.6867 -84.4881
rradius 31.8856
rwrist -2.07229
rhand -17.7393 6.33878
rfingers 7.12502
rthumb 8.52195 -23.4693
lclavicle -1.64991e-014 3.73715e-014
lhumerus -24.1241 -0.974717 84.9583
lradius 19.2907
lwrist -7.0854
lhand -26.4184 14.357
lfingers 7.12502
lthumb 0.141681 -315.663
rfemur 139.623 182.913 -161.637
rtibia 70.6065
rfoot 178.985 -180.533
rtoes 6.62525
lfemur -11.5456 3.13558 -19.2545
ltibia 21.4428
lfoot -12.3435 21.9551
ltoes 3.3212
3350
root 3.65032 15.6694 13.2934 -170.443 23.745 -178.895
lowerback 5.0173 2.73226 -3.78823
upperback 1.38033 3.50812 -1.59512
thorax -1.51204 1.79526 0.256627
lowerneck -14.0452 -7.17635 -4.24389
upperneck 33.6984 -9.69773 7.84794
head 14.6223 -2.82198 2.54975
rclavicle 2.44505e-014 1.82882e-014
rhumerus -32.4261 -7.74227 -84.5587
rradius 31.9143
rwrist -2.08019
rhand -18.4583 6.5861
rfingers 7.12502
rthumb 7.828 -23.249
lclavicle 2.44505e-014 1.82882e-014
lhumerus -24.1162 -0.217637 84.5401
lradius 18.704
lwrist -7.80437
lhand -26.2616 14.7111
lfingers 7.12502
lthumb 0.293119 -315.309
rfemur 139.338 183.123 -161.453
rtibia 71.2316
rfoot 179.335 -180.467
rtoes 7.70175
lfemur -11.4886 3.14473 -19.259
ltibia 21.4283
lfoot -12.3548 22.0659
ltoes 3.60777
3351
root 3.65195 15.6693 13.2848 -170.422 23.8703 -178.855
lowerback 4.97618 2.69746 -3.82682
upperback 1.3898 3.46264 -1.59625
thorax -1.47998 1.77228 0.282435
lowerneck -14.0966 -7.1463 -4.19801
upperneck 33.7249 -9.66599 7.82714
head 14.6391 -2.80481 2.53806
rclavicle 5.1684e-014 1.11319e-014
rhumerus -32.3383 -7.83215 -84.6206
rradius 31.929
rwrist -2.036
rhand -19.126 6.76156
rfingers 7.12502
rthumb 7.18357 -23.0965
lclavicle 5.1684e-014 1.11319e-014
lhumerus -24.1504 0.391809 84.167
lradius 18.229
lwrist -8.45948
lhand -26.0605 14.9777
lfingers 7.12502
lthumb 0.487333 -315.043
rfemur 139.058 183.318 -161.287
rtibia 71.7761
rfoot 179.672 -180.364
rtoes 8.60419
lfemur -11.4415 3.14599 -19.2497
ltibia 21.4239
lfoot -12.3825 22.1764
ltoes 3.88656
3352
root 3.65466 15.6686 13.2755 -170.388 23.996 -178.803
lowerback 4.92653 2.66308 -3.84627
upperback 1.4006 3.41888 -1.58919
thorax -1.44123 1.74983 0.306338
lowerneck -14.1509 -7.11565 -4.15488
upperneck 33.7393 -9.63275 7.80203
head 14.6506 -2.78916 2.52462
rclavicle -1.66979e-014 -1.66979e-014
rhumerus -32.2497 -7.93758 -84.6759
rradius 31.9329
rwrist -1.95323
rhand -19.7424 6.86714
rfingers 7.12502
rthumb 6.58845 -23.0104
lclavicle -1.66979e-014 -1.66979e-014
lhumerus -24.2239 0.860175 83.8395
lradius 17.8559
lwrist -9.07086
lhand -25.772 15.094
lfingers 7.12502
lthumb 0.765911 -314.928
rfemur 138.78 183.494 -161.138
rtibia 72.24
rfoot 179.986 -180.218
rtoes 9.38291
lfemur -11.4073 3.16917 -19.2314
ltibia 21.4322
lfoot -12.312 22.3148
ltoes 3.87597
3353
root 3.65828 15.6674 13.2653 -170.347 24.1234 -178.74
lowerback 4.87351 2.62871 -3.84516
upperback 1.41319 3.37621 -1.5768
thorax -1.39791 1.72768 0.3244
lowerneck -14.2027 -7.08309 -4.11454
upperneck 33.7403 -9.59681 7.7764
head 14.6552 -2.77404 2.51134
rclavicle -9.93923e-016 -9.54166e-015
rhumerus -32.1632 -8.04671 -84.7318
rradius 31.9294
rwrist -1.84281
rhand -20.2667 6.90783
rfingers 7.12502
rthumb 6.08229 -22.9849
lclavicle -9.93923e-016 -9.54166e-015
lhumerus -24.3274 1.18964 83.5543
lradius 17.5729
lwrist -9.625
lhand -25.4274 15.0677
lfingers 7.12502
lthumb 1.09873 -314.955
rfemur 138.51 183.657 -161.008
rtibia 72.6206
rfoot 180.266 -180.026
rtoes 10.0034
lfemur -11.378 3.17605 -19.2036
ltibia 21.4543
lfoot -12.203 22.4879
ltoes 3.75338
3354
root 3.66282 15.6661 13.2542 -170.306 24.2601 -178.665
lowerback 4.8237 2.59938 -3.82126
upperback 1.42911 3.34117 -1.55898
thorax -1.35229 1.70915 0.334746
lowerneck -14.2522 -7.05048 -4.07839
upperneck 33.7309 -9.56021 7.75044
head 14.6547 -2.76018 2.49833
rclavicle 2.82274e-014 2.22639e-014
rhumerus -32.082 -8.16094 -84.7864
rradius 31.9216
rwrist -1.72082
rhand -20.6958 6.89846
rfingers 7.12502
rthumb 5.66807 -23.0057
lclavicle 2.82274e-014 2.22639e-014
lhumerus -24.4509 1.40135 83.3102
lradius 17.3647
lwrist -10.1288
lhand -25.0329 14.8937
lfingers 7.12502
lthumb 1.47981 -315.132
rfemur 138.258 183.798 -160.899
rtibia 72.9158
rfoot 180.494 -179.799
rtoes 10.5144
lfemur -11.3363 3.13587 -19.1607
ltibia 21.4842
lfoot -12.1542 22.6911
ltoes 3.79279
3355
root 3.66818 15.665 13.2421 -170.268 24.4072 -178.588
lowerback 4.7808 2.57462 -3.78452
upperback 1.44656 3.31243 -1.53888
thorax -1.3086 1.69375 0.339542
lowerneck -14.2976 -7.01737 -4.04741
upperneck 33.7142 -9.52183 7.72531
head 14.6501 -2.74674 2.48667
rclavicle -5.24792e-014 1.19271e-014
rhumerus -32.0079 -8.2732 -84.8453
rradius 31.9094
rwrist -1.60519
rhand -21.04 6.85774
rfingers 7.12502
rthumb 5.33572 -23.0551
lclavicle -5.24792e-014 1.19271e-014
lhumerus -24.5925 1.50758 83.1032
lradius 17.2279
lwrist -10.5676
lhand -24.6059 14.5917
lfingers 7.12502
lthumb 1.89215 -315.437
rfemur 138.025 183.92 -160.821
rtibia 73.1232
rfoot 180.663 -179.555
rtoes 10.9668
lfemur -11.2733 3.01656 -19.1098
ltibia 21.5096
lfoot -12.2416 22.9185
ltoes 4.22326
3356
root 3.67442 15.6636 13.2292 -170.242 24.5669 -178.516
lowerback 4.75098 2.55949 -3.73862
upperback 1.46668 3.29645 -1.51925
thorax -1.26938 1.68481 0.337342
lowerneck -14.3388 -6.98785 -4.02092
upperneck 33.6929 -9.48791 7.70223
head 14.6432 -2.73577 2.47579
rclavicle 7.79236e-014 -1.51076e-014
rhumerus -31.944 -8.38377 -84.9073
rradius 31.8952
rwrist -1.5143
rhand -21.3069 6.80472
rfingers 7.12502
rthumb 5.07805 -23.1144
lclavicle 7.79236e-014 -1.51076e-014
lhumerus -24.74 1.50533 82.9362
lradius 17.1504
lwrist -10.9156
lhand -24.1706 14.1985
lfingers 7.12502
lthumb 2.31255 -315.834
rfemur 137.815 184.023 -160.778
rtibia 73.2451
rfoot 180.761 -179.311
rtoes 11.2911
lfemur -11.1794 2.86908 -19.0631
ltibia 21.5153
lfoot -12.3412 23.1759
ltoes 4.71125
3357
root 3.68319 15.6625 13.2154 -170.25 24.7284 -178.455
lowerback 4.74178 2.55322 -3.71111
upperback 1.49646 3.29123 -1.49621
thorax -1.23328 1.68145 0.347398
lowerneck -14.3778 -6.96286 -3.9992
upperneck 33.6728 -9.45938 7.68163
head 14.6374 -2.72711 2.466
rclavicle -5.96354e-015 2.06736e-014
rhumerus -31.8923 -8.49369 -84.9761
rradius 31.8772
rwrist -1.45513
rhand -21.5045 6.75378
rfingers 7.12502
rthumb 4.88719 -23.1699
lclavicle -5.96354e-015 2.06736e-014
lhumerus -24.8882 1.41752 82.8061
lradius 17.1251
lwrist -11.1672
lhand -23.7466 13.7371
lfingers 7.12502
lthumb 2.72207 -316.301
rfemur 137.661 184.107 -160.77
rtibia 73.2786
rfoot 180.776 -179.108
rtoes 11.5755
lfemur -11.0247 2.7261 -19.0186
ltibia 21.4863
lfoot -12.4362 23.4279
ltoes 5.19616
3358
root 3.69418 15.6617 13.2006 -170.289 24.8936 -178.413
lowerback 4.7528 2.55646 -3.70456
upperback 1.53406 3.29747 -1.47126
thorax -1.20204 1.68403 0.369552
lowerneck -14.4175 -6.94306 -3.9843
upperneck 33.6581 -9.43565 7.66077
head 14.635 -2.72082 2.4567
rclavicle 1.19271e-015 1.27222e-014
rhumerus -31.8505 -8.6033 -85.0467
rradius 31.8525
rwrist -1.41933
rhand -21.6221 6.72126
rfingers 7.12502
rthumb 4.77369 -23.205
lclavicle 1.19271e-015 1.27222e-014
lhumerus -25.0342 1.21601 82.7214
lradius 17.1555
lwrist -11.2689
lhand -23.3466 13.2715
lfingers 7.12502
lthumb 3.10834 -316.771
rfemur 137.556 184.173 -160.805
rtibia 73.2262
rfoot 180.713 -178.957
rtoes 11.7773
lfemur -10.8086 2.59482 -18.9849
ltibia 21.4088
lfoot -12.5137 23.6716
ltoes 5.6593
3359
root 3.70719 15.661 13.1851 -170.356 25.0619 -178.392
lowerback 4.78016 2.56792 -3.71985
upperback 1.57854 3.31355 -1.44434
thorax -1.17446 1.6917 0.404601
lowerneck -14.459 -6.92761 -3.97856
upperneck 33.6521 -9.41391 7.63735
head 14.6378 -2.71613 2.44793
rclavicle 0 -7.15625e-015
rhumerus -31.8164 -8.69582 -85.1246
rradius 31.8223
rwrist -1.43622
rhand -21.6926 6.70553
rfingers 7.12502
rthumb 4.70564 -23.2222
lclavicle 0 -7.15625e-015
lhumerus -25.1707 0.954149 82.6721
lradius 17.2292
lwrist -11.2529
lhand -22.9855 12.8155
lfingers 7.12502
lthumb 3.45709 -317.233
rfemur 137.491 184.225 -160.883
rtibia 73.0895
rfoot 180.582 -178.875
rtoes 11.9098
lfemur -10.5344 2.47793 -18.9667
ltibia 21.2755
lfoot -12.5724 23.9043
ltoes 6.10229
